<svg id="Layer_1" data-name="Layer 1" xmlns="http://www.w3.org/2000/svg" xmlns:xlink="http://www.w3.org/1999/xlink" viewBox="0 0 260 173.12"><defs><style>.cls-1{fill:#36231d;}.cls-2{fill:url(#linear-gradient);}.cls-3{fill:url(#linear-gradient-2);}</style><linearGradient id="linear-gradient" x1="-151.65" y1="545.3" x2="-150.65" y2="545.3" gradientTransform="matrix(57.89, 38.06, 26.99, -81.62, -5816.98, 50374.98)" gradientUnits="userSpaceOnUse"><stop offset="0" stop-color="#eb6e00"/><stop offset="1" stop-color="#f3bce6"/></linearGradient><linearGradient id="linear-gradient-2" x1="-151.65" y1="545.3" x2="-150.65" y2="545.3" gradientTransform="matrix(57.85, 38.06, 26.97, -81.63, -5838.31, 50369.09)" xlink:href="#linear-gradient"/></defs><title>default</title><path class="cls-1" d="M65.3,233.94h4.63L59.6,186.48,45,224.59,30.42,186.48,20,233.94h4.72l6.87-31.7L45,236.56l13.33-34.32Zm38.34-15.05a13.7,13.7,0,0,0-4.53-10.29,14.92,14.92,0,0,0-10.52-4.25A15,15,0,0,0,78,230a15.46,15.46,0,0,0,4.77,3.23,17.08,17.08,0,0,0,6.55,1.17A13.88,13.88,0,0,0,96.82,232a14.52,14.52,0,0,0,5.51-6.54H97.1a10.43,10.43,0,0,1-3.74,3.18,10.22,10.22,0,0,1-4.77,1.17,10.37,10.37,0,0,1-6.69-2.43,10.1,10.1,0,0,1-3.6-6.08h25.34Zm-4.81-1.5H78.39A9.84,9.84,0,0,1,79.75,214a10,10,0,0,1,8.84-5.09,9.74,9.74,0,0,1,6.5,2.38A10.6,10.6,0,0,1,98.83,217.39Zm35.25,2.15a10.53,10.53,0,0,1-2.9,7.34,9.95,9.95,0,0,1-14.49,0,10.74,10.74,0,0,1,0-14.68,9.95,9.95,0,0,1,14.49,0A10.55,10.55,0,0,1,134.08,219.54Zm4.58,14.4V184.85h-4.58v25.2c-.24-.33-.52-.66-.8-1a13.32,13.32,0,0,0-20.1,0,15.79,15.79,0,0,0,0,20.94,13.3,13.3,0,0,0,20.1,0c.28-.32.56-.65.8-1v4.91Zm14.49-38.76a2.88,2.88,0,0,0-2.05-.84,3,3,0,0,0-2.11.84,2.82,2.82,0,0,0-.84,2.06,2.77,2.77,0,0,0,.84,2.06,2.83,2.83,0,0,0,2.11.88,2.93,2.93,0,0,0,2.05-5Zm.24,38.76v-28.8h-4.58v28.8Zm33-14.4a10.36,10.36,0,0,1-3,7.34,9.38,9.38,0,0,1-7.2,3.13,9.48,9.48,0,0,1-7.25-3.13,10.77,10.77,0,0,1,0-14.68,9.48,9.48,0,0,1,7.25-3.13,9.38,9.38,0,0,1,7.2,3.13A10.38,10.38,0,0,1,186.4,219.54Zm4.58,14.4v-28.8H186.4v4.91l-.84-1a13.33,13.33,0,0,0-20.11,0,15.91,15.91,0,0,0,0,20.94,13.31,13.31,0,0,0,20.11,0l.84-1v4.91Zm6.22-24.55h7.2v24.55H209V209.39h7.11v-4.25H209V194H204.4v11.17h-7.2Zm53.25,9.5a13.73,13.73,0,0,0-4.53-10.29,14.92,14.92,0,0,0-10.52-4.25A15,15,0,0,0,224.78,230a15.46,15.46,0,0,0,4.77,3.23,17.08,17.08,0,0,0,6.55,1.17,13.7,13.7,0,0,0,7.52-2.39,14.47,14.47,0,0,0,5.52-6.54h-5.23a10.38,10.38,0,0,1-3.75,3.18,10,10,0,0,1-4.76,1.17,10.14,10.14,0,0,1-6.64-2.43,9.65,9.65,0,0,1-3.6-6.08h25.29Zm-4.81-1.5H225.2a10.47,10.47,0,0,1,1.36-3.37c2.2-3.41,5.14-5.09,8.84-5.09a9.91,9.91,0,0,1,6.54,2.38A10.49,10.49,0,0,1,245.64,217.39Zm16.92,16.55V220.1l11.36,13.84H280l-12.62-14.87,11.83-14h-6.08L262.56,218V184.85H258v49.09Z" transform="translate(-20 -63.44)"/><g id="c7529f04-45d5-452d-a058-d55aeb07235c"><path class="cls-2" d="M193.54,84.71a2.33,2.33,0,0,0-2.4-.32L152.7,101a15.13,15.13,0,0,1-5.92,1.08,21.52,21.52,0,0,1-8.25-1.64,10.4,10.4,0,0,1-1.88-1c.17-.09.36-.17.58-.26l35-15.13,5.21,2.23V79.76a3.07,3.07,0,0,0-1.11-2.44A2.35,2.35,0,0,0,173.9,77L135.43,93.63a9.06,9.06,0,0,0-3.07,1.93,5.28,5.28,0,0,0-1.57,3.71.8.8,0,0,0,0,.11v58.8h0a5.89,5.89,0,0,0,2.1,4.28c3.11,2.74,8.32,4.27,13.87,4.39a20,20,0,0,0,7.76-1.45L193,148.73a2.91,2.91,0,0,0,1.67-2.74V87.15A3.13,3.13,0,0,0,193.54,84.71Z" transform="translate(-20 -63.44)"/><path class="cls-3" d="M169.16,73.57a3,3,0,0,0-1.08-2.21,2.35,2.35,0,0,0-2.41-.33L127.23,87.68a15.27,15.27,0,0,1-5.91,1.07,21.57,21.57,0,0,1-8.26-1.64,9.74,9.74,0,0,1-1.87-1l.58-.25,35-15.14L152,72.92V66.4A3.05,3.05,0,0,0,150.82,64a2.35,2.35,0,0,0-2.41-.33L110,80.28a9,9,0,0,0-3.07,1.92,5.3,5.3,0,0,0-1.56,3.72.41.41,0,0,0,0,.11v58.61s0,.06,0,.08a.41.41,0,0,1,0,.09v.07h0a5.78,5.78,0,0,0,2.1,4.27c3.1,2.74,8.32,4.22,13.86,4.36a24.36,24.36,0,0,0,4.49-.47V99.4a10.16,10.16,0,0,1,3-7.39,14,14,0,0,1,4.73-3Z" transform="translate(-20 -63.44)"/></g></svg>