<svg id="Layer_1" data-name="Layer 1" xmlns="http://www.w3.org/2000/svg" xmlns:xlink="http://www.w3.org/1999/xlink" viewBox="0 0 220 49.1"><defs><style>.cls-1{fill:#36231d;}.cls-2{fill:url(#linear-gradient);}.cls-3{fill:url(#linear-gradient-2);}</style><linearGradient id="linear-gradient" x1="-147.95" y1="543.71" x2="-146.95" y2="543.71" gradientTransform="matrix(27.48, 18.07, 12.82, -38.75, -2853.19, 23883.56)" gradientUnits="userSpaceOnUse"><stop offset="0" stop-color="#eb6e00"/><stop offset="1" stop-color="#f3bce6"/></linearGradient><linearGradient id="linear-gradient-2" x1="-147.94" y1="543.71" x2="-146.94" y2="543.71" gradientTransform="matrix(27.46, 18.07, 12.81, -38.76, -2863.32, 23880.77)" xlink:href="#linear-gradient"/></defs><title>left-default</title><path class="cls-1" d="M124.09,164.71H127l-6.54-30-9.24,24.12L102,134.67l-6.6,30h3l4.35-20.07,8.49,21.73,8.44-21.73Zm24.27-9.53a8.67,8.67,0,0,0-2.87-6.51,9.46,9.46,0,0,0-6.66-2.7,9.61,9.61,0,0,0-9.53,9.53,9.06,9.06,0,0,0,2.81,6.72,9.78,9.78,0,0,0,3,2.05,10.83,10.83,0,0,0,4.14.74A8.84,8.84,0,0,0,144,163.5a9.21,9.21,0,0,0,3.49-4.15h-3.32a6.57,6.57,0,0,1-2.36,2,6.48,6.48,0,0,1-3,.74,6.57,6.57,0,0,1-4.23-1.54,6.35,6.35,0,0,1-2.28-3.85h16Zm-3.05-1H132.38a6,6,0,0,1,.85-2.13,6.31,6.31,0,0,1,5.6-3.22,6.15,6.15,0,0,1,4.11,1.5A6.68,6.68,0,0,1,145.31,154.23Zm22.32,1.36a6.7,6.7,0,0,1-1.84,4.65,6.3,6.3,0,0,1-9.17,0,6.78,6.78,0,0,1,0-9.29,6.28,6.28,0,0,1,9.17,0A6.69,6.69,0,0,1,167.63,155.59Zm2.9,9.12V133.63h-2.9v16c-.15-.21-.33-.42-.51-.63a8.42,8.42,0,0,0-12.72,0,10,10,0,0,0,0,13.26,8.42,8.42,0,0,0,12.72,0,7.28,7.28,0,0,0,.51-.62v3.11Zm9.17-24.54a1.85,1.85,0,0,0-1.3-.53,1.87,1.87,0,0,0-1.33.53,1.78,1.78,0,0,0-.53,1.31,1.73,1.73,0,0,0,.53,1.3,1.78,1.78,0,0,0,1.33.56,1.76,1.76,0,0,0,1.3-.56,1.73,1.73,0,0,0,.53-1.3A1.78,1.78,0,0,0,179.7,140.17Zm.15,24.54V146.48H177v18.23Zm20.9-9.12a6.6,6.6,0,0,1-1.87,4.65,6.26,6.26,0,0,1-9.14,0,6.78,6.78,0,0,1,0-9.29,6.24,6.24,0,0,1,9.14,0A6.59,6.59,0,0,1,200.75,155.59Zm2.9,9.12V146.48h-2.9v3.11l-.54-.63a8.42,8.42,0,0,0-12.72,0,10.07,10.07,0,0,0,0,13.26,8.42,8.42,0,0,0,12.72,0l.54-.62v3.11Zm3.93-15.54h4.56v15.54H215V149.17h4.5v-2.69H215V139.4h-2.9v7.08h-4.56Zm33.71,6a8.63,8.63,0,0,0-2.87-6.51,9.43,9.43,0,0,0-6.66-2.7,9.5,9.5,0,0,0-6.71,16.25,9.73,9.73,0,0,0,3,2.05,10.92,10.92,0,0,0,4.15.74A8.73,8.73,0,0,0,237,163.5a9.23,9.23,0,0,0,3.5-4.15h-3.32a6.52,6.52,0,0,1-2.37,2,6.34,6.34,0,0,1-3,.74,6.43,6.43,0,0,1-4.2-1.54,6.17,6.17,0,0,1-2.28-3.85h16Zm-3-1H225.31a6.86,6.86,0,0,1,.86-2.13,6.47,6.47,0,0,1,9.74-1.72A6.68,6.68,0,0,1,238.25,154.23ZM249,164.71V156l7.19,8.76H260l-8-9.41,7.49-8.85h-3.85l-6.69,8.2v-21h-2.9v31.08Z" transform="translate(-40 -125.45)"/><g id="cbbbf883-9f9e-4c08-bbe7-c97f61abd455"><path class="cls-2" d="M81.88,135.55a1.13,1.13,0,0,0-1.14-.16L62.49,143.3a7.33,7.33,0,0,1-2.81.51,10.32,10.32,0,0,1-3.92-.78,4.55,4.55,0,0,1-.89-.49l.27-.12,16.61-7.19,2.48,1.06V133.2a1.46,1.46,0,0,0-.54-1.16,1.12,1.12,0,0,0-1.14-.16l-18.26,7.91a4.06,4.06,0,0,0-1.46.91,2.49,2.49,0,0,0-.74,1.76v28h0a2.74,2.74,0,0,0,1,2,10.62,10.62,0,0,0,6.59,2.09,9.54,9.54,0,0,0,3.68-.69l18.25-7.92a1.36,1.36,0,0,0,.8-1.3V136.71A1.49,1.49,0,0,0,81.88,135.55Z" transform="translate(-40 -125.45)"/><path class="cls-3" d="M70.3,130.26a1.44,1.44,0,0,0-.51-1,1.12,1.12,0,0,0-1.14-.16L50.4,137a7.33,7.33,0,0,1-2.81.51,10.32,10.32,0,0,1-3.92-.78,5.15,5.15,0,0,1-.89-.49l.28-.12,16.6-7.19L62.13,130v-3.09a1.46,1.46,0,0,0-.54-1.16,1.12,1.12,0,0,0-1.14-.16L42.2,133.45a4.15,4.15,0,0,0-1.46.91,2.49,2.49,0,0,0-.74,1.76.07.07,0,0,0,0,0V164s0,0,0,0v0h0a2.75,2.75,0,0,0,1,2,10.58,10.58,0,0,0,6.58,2.07,11.84,11.84,0,0,0,2.13-.22V142.52a4.8,4.8,0,0,1,1.44-3.5,6.48,6.48,0,0,1,2.25-1.43Z" transform="translate(-40 -125.45)"/></g></svg>